<svg width="31" height="30" viewBox="0 0 31 30" fill="none" xmlns="http://www.w3.org/2000/svg">
<circle cx="15.5" cy="15" r="15" fill="#9FC462"/>
<path d="M16.976 13.49H19.154V24.02H16.976V13.49ZM12.242 15.74H23.816V17.702H12.242V15.74ZM19.568 16.604C20.558 18.566 22.466 20.564 24.338 21.644C23.852 22.058 23.168 22.832 22.808 23.372C20.918 22.022 19.064 19.592 17.948 17.198L19.568 16.604ZM16.688 16.442L18.38 17.036C17.21 19.574 15.212 21.968 13.088 23.318C12.746 22.796 12.062 22.022 11.594 21.608C13.646 20.546 15.644 18.494 16.688 16.442ZM15.482 9.80002V12.212H20.774V9.80002H15.482ZM13.43 7.91002H22.934V14.12H13.43V7.91002ZM11.072 7.15402L13.088 7.80202C11.882 10.862 9.956 14.084 7.958 16.118C7.778 15.614 7.184 14.426 6.824 13.904C8.498 12.284 10.118 9.72802 11.072 7.15402ZM9.344 12.14L11.378 10.088L11.396 10.106V23.966H9.344V12.14Z" fill="white"/>
</svg>
