<svg width="32" height="31" viewBox="0 0 32 31" fill="none" xmlns="http://www.w3.org/2000/svg">
<ellipse cx="16.1553" cy="15.5" rx="15.1724" ry="15" fill="#989898"/>
<path d="M18.1758 10.012H24.1338V12.028H18.1758V10.012ZM18.1758 18.346H24.4398V20.362H18.1758V18.346ZM18.0318 14.188H23.7198V16.132H18.0318V14.188ZM8.29376 10.012H13.7298V12.028H8.29376V10.012ZM8.47376 14.188H13.6218V16.132H8.47376V14.188ZM17.0778 7.70802H19.2378V24.52H17.0778V7.70802ZM7.51976 18.508C9.62576 18.274 12.9198 17.86 16.0158 17.428L16.1058 19.336C13.2258 19.804 10.1838 20.29 7.91576 20.632L7.51976 18.508ZM12.7038 7.70802H14.8278V16.132C14.8278 18.598 13.9278 22.612 9.55376 24.736C9.21176 24.232 8.50976 23.548 8.00576 23.134C11.9478 21.478 12.7038 18.04 12.7038 16.15V7.70802Z" fill="white"/>
</svg>
