<svg width="31" height="31" viewBox="0 0 31 31" fill="none" xmlns="http://www.w3.org/2000/svg">
<circle cx="15.5" cy="15.5" r="15" fill="#FF9A23"/>
<path d="M14.492 14.566H23.114V16.474H14.492V14.566ZM14.492 18.148H23.114V20.038H14.492V18.148ZM14.528 21.784H23.942V23.782H14.528V21.784ZM17.984 11.722H20.036V23.026H17.984V11.722ZM19.424 7.72602L21.638 8.30202C21.062 9.72402 20.414 11.29 19.874 12.298L18.092 11.74C18.596 10.66 19.136 8.96802 19.424 7.72602ZM14.888 7.61802L16.976 8.21202C15.896 11.2 14.132 14.26 12.314 16.168C11.99 15.736 11.234 14.818 10.784 14.422C12.476 12.82 14.006 10.228 14.888 7.61802ZM15.464 11.056H23.636V12.982H15.464V24.52H13.412V12.712L15.032 11.056H15.464ZM7.4 10.156L8.75 8.62602C9.866 9.31002 11.342 10.336 12.026 11.11L10.586 12.802C9.956 12.028 8.534 10.894 7.4 10.156ZM6.968 21.802C7.904 20.578 9.254 18.562 10.352 16.672L11.936 18.112C10.964 19.822 9.83 21.676 8.768 23.26L6.968 21.802Z" fill="white"/>
</svg>
