<svg width="32" height="31" viewBox="0 0 32 31" fill="none" xmlns="http://www.w3.org/2000/svg">
<ellipse cx="16.1553" cy="15.5" rx="15.1724" ry="15" fill="#989898"/>
<path d="M16.6998 14.098H18.7518V24.484H16.6998V14.098ZM13.6578 9.27402L16.1958 9.97602C16.1778 10.156 16.0518 10.246 15.7278 10.3V14.314C15.7278 17.176 15.4398 21.64 13.3878 24.646C13.0638 24.196 12.2358 23.512 11.6958 23.296C13.4958 20.614 13.6578 16.96 13.6578 14.296V9.27402ZM22.4418 11.758L24.1158 13.414C21.8478 14.386 18.7878 15.106 16.1058 15.592C15.9978 15.124 15.6738 14.35 15.4218 13.9C17.9598 13.396 20.7498 12.586 22.4418 11.758ZM22.0098 7.60002L23.7738 9.31002C21.2538 10.372 17.9238 11.254 14.9718 11.83C14.8818 11.326 14.5218 10.534 14.2698 10.066C17.0778 9.47202 20.1198 8.53602 22.0098 7.60002ZM21.1098 13.504C21.5238 17.482 22.3698 21.046 24.6558 22.666C24.1518 23.08 23.4498 23.962 23.1438 24.574C20.6238 22.432 19.7778 18.49 19.3278 13.684L21.1098 13.504ZM23.2698 14.908L24.7098 16.546C23.6118 17.302 22.5678 18.166 21.7038 18.67L20.7318 17.446C21.5058 16.834 22.6398 15.718 23.2698 14.908ZM8.47376 9.29202L9.66176 7.67202C10.7418 8.08602 12.1458 8.82402 12.8478 9.40002L11.5878 11.2C10.9398 10.57 9.55376 9.76002 8.47376 9.29202ZM7.53776 14.17L8.72576 12.532C9.78776 12.91 11.1918 13.612 11.8938 14.17L10.6338 15.97C9.98576 15.394 8.63576 14.62 7.53776 14.17ZM7.82576 23.026C8.67176 21.64 9.85976 19.354 10.7958 17.23L12.4878 18.508C11.6778 20.452 10.7058 22.558 9.76976 24.322L7.82576 23.026Z" fill="white"/>
</svg>
