<svg width="32" height="30" viewBox="0 0 32 30" fill="none" xmlns="http://www.w3.org/2000/svg">
<ellipse cx="16.1553" cy="15" rx="15.1724" ry="15" fill="#31597E"/>
<path d="M15.1338 16.028H17.3658V24.02H15.1338V16.028ZM13.3158 13.832V14.948H18.6798V13.832H13.3158ZM11.2458 12.302H20.8938V16.478H11.2458V12.302ZM9.51776 17.558H21.6318V19.484H11.6958V23.228H9.51776V17.558ZM20.6058 17.558H22.8198V21.266C22.8198 22.238 22.6218 22.796 21.9018 23.102C21.1818 23.408 20.2098 23.426 18.9138 23.426C18.8058 22.832 18.4998 22.004 18.2118 21.464C19.0218 21.5 19.9938 21.5 20.2458 21.5C20.5158 21.482 20.6058 21.428 20.6058 21.23V17.558ZM14.8998 7.10002H17.1318V10.412H14.8998V7.10002ZM8.31176 9.58402H23.8458V13.94H21.7038V11.438H10.3818V13.94H8.31176V9.58402ZM9.75176 8.00002L11.7138 7.22602C12.2358 7.80202 12.7758 8.59402 13.0278 9.15202L10.9578 10.07C10.7598 9.49402 10.2378 8.61202 9.75176 8.00002ZM20.2818 7.24402L22.6038 7.94602C21.9558 8.70202 21.3078 9.40402 20.8038 9.87202L18.9858 9.22402C19.4358 8.66602 19.9758 7.83802 20.2818 7.24402Z" fill="white"/>
</svg>
