<svg width="31" height="30" viewBox="0 0 31 30" fill="none" xmlns="http://www.w3.org/2000/svg">
<circle cx="15.5" cy="15" r="15" fill="#8FC8E0"/>
<path d="M14.96 11.006H22.178V13.04H14.96V11.006ZM21.296 11.006H23.366C23.366 11.006 23.348 11.708 23.348 11.96C23.186 19.394 23.042 22.058 22.448 22.886C22.016 23.516 21.584 23.714 20.936 23.822C20.36 23.912 19.424 23.894 18.488 23.876C18.452 23.282 18.2 22.382 17.84 21.824C18.74 21.878 19.532 21.896 19.928 21.896C20.216 21.896 20.414 21.824 20.576 21.59C21.026 21.032 21.17 18.422 21.296 11.438V11.006ZM17.354 7.13602H19.46C19.442 14.642 19.424 20.69 14.6 24.038C14.276 23.498 13.61 22.76 13.088 22.4C17.552 19.448 17.336 14.156 17.354 7.13602ZM8.192 7.87402H14.474V19.61H12.476V9.81802H10.1V20.744H8.192V7.87402ZM6.932 20.042C9.002 19.682 12.242 19.016 15.266 18.35L15.464 20.294C12.62 20.996 9.56 21.716 7.292 22.256L6.932 20.042ZM9.2 11.618H13.484V13.508H9.2V11.618ZM9.2 15.362H13.484V17.252H9.2V15.362Z" fill="white"/>
</svg>
