<svg width="41" height="34" viewBox="0 0 41 34" fill="none" xmlns="http://www.w3.org/2000/svg">
<g id="_&#227;&#131;&#172;&#227;&#130;&#164;&#227;&#131;&#164;&#227;&#131;&#188;_1" clip-path="url(#clip0_3640_2551)">
<g id="Vector">
<path d="M11.4497 15.7399C11.4497 15.7399 19.5158 0.825882 31.7388 0.825882L29.5364 8.65107L39.6741 12.4983C39.6741 12.4983 23.9136 17.2058 18.7794 24.5423" fill="#bce751"/>
<path d="M11.4497 15.7399C11.4497 15.7399 19.5158 0.825882 31.7388 0.825882L29.5364 8.65107L39.6741 12.4983C39.6741 12.4983 23.9136 17.2058 18.7794 24.5423" stroke="#79b110" stroke-width="1.65176" stroke-linecap="round" stroke-linejoin="round"/>
</g>
<path id="Vector_2" d="M23.0809 16.6414L29.4264 26.022C29.4264 26.022 20.1697 25.203 18.4491 25.2787L12.9157 33.0971L9.88753 23.7578C9.88753 23.7578 3.8655 21.2595 1.32593 19.4563C1.32593 19.4563 6.11602 15.6435 9.97011 14.3428C9.97011 14.3428 9.80494 6.72403 10.2592 5.04475C10.2592 5.04475 14.3129 8.03855 17.6301 10.8672C17.6301 10.8672 21.6081 8.92637 26.3156 8.00414C26.3156 8.00414 25.0011 13.9023 23.074 16.6414H23.0809Z" fill="white" stroke="#79b110" stroke-width="1.65176" stroke-linecap="round" stroke-linejoin="round"/>
</g>
<defs>
<clipPath id="clip0_3640_2551">
<rect width="40" height="33.9298" fill="white" transform="translate(0.5)"/>
</clipPath>
</defs>
</svg>
