<svg id="number_2" xmlns="http://www.w3.org/2000/svg" width="48" height="48" viewBox="0 0 48 48">
  <circle id="楕円形" cx="24" cy="24" r="24" fill="#79b110"/>
  <path id="_2" data-name="2" d="M16.025-3.545V0H1.172L8.789-9.99a25.015,25.015,0,0,0,2.2-3.252,4.633,4.633,0,0,0,.623-2.095,2.6,2.6,0,0,0-.754-1.978,2.884,2.884,0,0,0-2.073-.718,2.4,2.4,0,0,0-1.963.9,3.73,3.73,0,0,0-.732,2.424v.1H1.772v-.366A6.516,6.516,0,0,1,3.6-19.915a7.206,7.206,0,0,1,5.186-1.75A8.166,8.166,0,0,1,14.121-20.1a5.358,5.358,0,0,1,1.9,4.38q0,3.164-4.951,9.346l-.308.366L8.789-3.545Z" transform="translate(15 35)" fill="#fff"/>
</svg>
