<svg id="number_3" xmlns="http://www.w3.org/2000/svg" width="48" height="48" viewBox="0 0 48 48">
  <circle id="楕円形" cx="24" cy="24" r="24" fill="#79b110"/>
  <path id="_3" data-name="3" d="M1.553-5.669H5.786v.059a2.334,2.334,0,0,0,.872,1.882A3.444,3.444,0,0,0,8.936-3a3.6,3.6,0,0,0,2.512-.806,2.931,2.931,0,0,0,.886-2.285,2.993,2.993,0,0,0-.916-2.373A3.956,3.956,0,0,0,8.73-9.272q-.088,0-.278.015t-.293.015v-3.75q.088,0,.264.015t.249.015a3.614,3.614,0,0,0,2.38-.674,2.5,2.5,0,0,0,.8-2.021,2.455,2.455,0,0,0-.725-1.846,2.629,2.629,0,0,0-1.912-.7,3.1,3.1,0,0,0-1.978.571A2.367,2.367,0,0,0,6.387-16H2.314a5.542,5.542,0,0,1,1.978-4.2A7.843,7.843,0,0,1,9.36-21.665a7.453,7.453,0,0,1,4.951,1.538,5.15,5.15,0,0,1,1.831,4.16,4.944,4.944,0,0,1-.989,3.113,4.109,4.109,0,0,1-2.615,1.575,4.938,4.938,0,0,1,3,1.89,5.821,5.821,0,0,1,1.113,3.6,5.679,5.679,0,0,1-2.095,4.651A8.787,8.787,0,0,1,8.848.571a7.991,7.991,0,0,1-5.3-1.67,5.446,5.446,0,0,1-2-4.395Z" transform="translate(15 35)" fill="#fff"/>
</svg>
